<svg width="126" height="28" viewBox="0 0 126 28" fill="none" xmlns="http://www.w3.org/2000/svg">
<path d="M5.09998 13.668H16.524V18.088H5.09998V13.668ZM5.50798 26.758H-2.13385e-05V2.95799H17.986V7.37799H5.50798V26.758ZM28.6272 27.03C27.1085 27.03 25.7485 26.7353 24.5472 26.146C23.3685 25.5567 22.4505 24.6613 21.7932 23.46C21.1358 22.236 20.8072 20.6833 20.8072 18.802V8.46599H26.1112V18.02C26.1112 19.5387 26.4285 20.6607 27.0632 21.386C27.7205 22.0887 28.6385 22.44 29.8172 22.44C30.6332 22.44 31.3585 22.27 31.9932 21.93C32.6278 21.5673 33.1265 21.0233 33.4892 20.298C33.8518 19.55 34.0332 18.6207 34.0332 17.51V8.46599H39.3372V26.758H34.3052V21.726L35.2232 23.188C34.6112 24.4573 33.7045 25.4207 32.5032 26.078C31.3245 26.7127 30.0325 27.03 28.6272 27.03ZM44.251 26.758V8.46599H49.317V13.634L48.603 12.138C49.147 10.846 50.0196 9.87133 51.221 9.21399C52.4223 8.534 53.8843 8.194 55.607 8.194V13.09C55.3803 13.0673 55.1763 13.056 54.995 13.056C54.8136 13.0333 54.621 13.022 54.417 13.022C52.9663 13.022 51.7876 13.4413 50.881 14.28C49.997 15.096 49.555 16.3767 49.555 18.122V26.758H44.251ZM69.9119 8.194C71.3626 8.194 72.6546 8.48866 73.7879 9.07799C74.9439 9.64466 75.8506 10.5287 76.5079 11.73C77.1653 12.9087 77.4939 14.4273 77.4939 16.286V26.758H72.1899V17.102C72.1899 15.6287 71.8613 14.5407 71.2039 13.838C70.5693 13.1353 69.6626 12.784 68.4839 12.784C67.6453 12.784 66.8859 12.9653 66.2059 13.328C65.5486 13.668 65.0273 14.2007 64.6419 14.926C64.2793 15.6513 64.0979 16.5807 64.0979 17.714V26.758H58.7939V8.46599H63.8599V13.532L62.9079 12.002C63.5653 10.778 64.5059 9.83733 65.7299 9.17999C66.9539 8.52266 68.3479 8.194 69.9119 8.194ZM82.3018 26.758V8.46599H87.6058V26.758H82.3018ZM84.9538 5.91599C83.9791 5.91599 83.1858 5.63266 82.5738 5.066C81.9618 4.49933 81.6558 3.79666 81.6558 2.95799C81.6558 2.11933 81.9618 1.41666 82.5738 0.849995C83.1858 0.283327 83.9791 -6.4373e-06 84.9538 -6.4373e-06C85.9284 -6.4373e-06 86.7218 0.271994 87.3338 0.815995C87.9458 1.33733 88.2518 2.01733 88.2518 2.856C88.2518 3.73999 87.9458 4.47666 87.3338 5.066C86.7444 5.63266 85.9511 5.91599 84.9538 5.91599ZM92.5283 26.758V8.46599H97.5943V13.634L96.8803 12.138C97.4243 10.846 98.297 9.87133 99.4983 9.21399C100.7 8.534 102.162 8.194 103.884 8.194V13.09C103.658 13.0673 103.454 13.056 103.272 13.056C103.091 13.0333 102.898 13.022 102.694 13.022C101.244 13.022 100.065 13.4413 99.1583 14.28C98.2743 15.096 97.8323 16.3767 97.8323 18.122V26.758H92.5283ZM115.609 27.03C113.66 27.03 111.926 26.622 110.407 25.806C108.911 24.99 107.721 23.8793 106.837 22.474C105.976 21.046 105.545 19.4253 105.545 17.612C105.545 15.776 105.976 14.1553 106.837 12.75C107.721 11.322 108.911 10.2113 110.407 9.41799C111.926 8.60199 113.66 8.194 115.609 8.194C117.536 8.194 119.259 8.60199 120.777 9.41799C122.296 10.2113 123.486 11.3107 124.347 12.716C125.209 14.1213 125.639 15.7533 125.639 17.612C125.639 19.4253 125.209 21.046 124.347 22.474C123.486 23.8793 122.296 24.99 120.777 25.806C119.259 26.622 117.536 27.03 115.609 27.03ZM115.609 22.678C116.493 22.678 117.287 22.474 117.989 22.066C118.692 21.658 119.247 21.08 119.655 20.332C120.063 19.5613 120.267 18.6547 120.267 17.612C120.267 16.5467 120.063 15.64 119.655 14.892C119.247 14.144 118.692 13.566 117.989 13.158C117.287 12.75 116.493 12.546 115.609 12.546C114.725 12.546 113.932 12.75 113.229 13.158C112.527 13.566 111.96 14.144 111.529 14.892C111.121 15.64 110.917 16.5467 110.917 17.612C110.917 18.6547 111.121 19.5613 111.529 20.332C111.96 21.08 112.527 21.658 113.229 22.066C113.932 22.474 114.725 22.678 115.609 22.678Z" fill="black"/>
</svg>
